#N canvas 525 102 40 43 10;
#X obj 49 27 inlet~;
#X obj 231 45 inlet~;
#X obj 72 276 *~;
#X obj 166 267 *~;
#X obj 132 184 pack 0 50;
#X obj 146 213 line~;
#X obj 38 410 outlet~;
#X obj 141 414 outlet~;
#X obj 138 37 inlet;
#X obj 45 308 hip~ 5;
#X obj 152 304 hip~ 5;
#X obj 60 370 clip~ -0.99 0.99;
#X obj 252 367 clip~ -0.99 0.99;
#X floatatom 7 24 3 0 99 0 - - -;
#X obj 98 113 / 99;
#X obj 140 78 clip 0 99;
#X connect 0 0 2 0;
#X connect 1 0 3 1;
#X connect 2 0 9 0;
#X connect 3 0 10 0;
#X connect 4 0 5 0;
#X connect 5 0 3 0;
#X connect 5 0 2 1;
#X connect 8 0 15 0;
#X connect 9 0 11 0;
#X connect 10 0 12 0;
#X connect 11 0 6 0;
#X connect 12 0 7 0;
#X connect 13 0 14 0;
#X connect 14 0 4 0;
#X connect 15 0 13 0;
#X coords 0 0 1 1 20 30 1;
