#N canvas 0 0 450 300 10;
#X obj 69 36 inlet;
#X obj 156 38 inlet;
#X obj 116 142 line~;
#X obj 115 194 outlet~;
#X obj 98 96 pack 0 20;
#X connect 0 0 4 0;
#X connect 1 0 4 1;
#X connect 2 0 3 0;
#X connect 4 0 2 0;
