#N canvas 733 19 334 820 10;
#N canvas 298 87 574 717 table 0;
#X obj 19 419 inlet;
#X obj 79 563 soundfiler;
#X obj 59 468 openpanel;
#X obj 87 512 pack s s;
#X msg 80 539 read -resize \$1 \$2;
#X obj 106 404 loadbang;
#X obj 79 587 outlet;
#N canvas 0 0 450 300 (subpatch) 0;
#X array \$0-sampler 135845 float 0 black black;
#X coords 0 1 135844 -1 200 140 1;
#X restore 310 29 graph;
#X obj 151 466 symbol \$0-sampler;
#X connect 0 0 2 0;
#X connect 1 0 6 0;
#X connect 2 0 3 0;
#X connect 3 0 4 0;
#X connect 4 0 1 0;
#X connect 5 0 8 0;
#X connect 8 0 3 1;
#X restore 513 501 pd table;
#X obj 323 455 phasor~;
#X obj 365 682 +~ 1;
#X obj 281 937 outlet~;
#X obj 128 205 inlet;
#X msg 46 235 60;
#X obj 91 283 /;
#X obj 186 291 pow 2;
#X msg 151 273 2;
#X obj 215 345 *;
#X msg 191 390 1;
#X obj 226 425 /;
#X obj 370 486 +~;
#X obj 372 520 wrap~;
#X msg 316 362 0;
#X obj 65 8 hradio 8 0 0 5 test empty empty 0 -6 0 8 -262144 -1 -1
0;
#X obj 2 25 bng 8 250 50 0 empty empty k 5 11 0 8 -262144 -1 -1;
#X obj 12 14 bng 10 250 50 0 empty empty o 3 13 0 10 -4160 -1 -1;
#X msg 379 359 0;
#X obj 25 26 bng 8 250 50 0 empty empty p 5 11 0 8 -262144 -1 -1;
#X obj 39 19 hsl 70 8 0 1 0 0 empty empty empty -2 -6 0 8 -262144 -1
-1 1700 1;
#X obj 39 31 hsl 70 8 0 1 0 0 empty empty empty -2 -6 0 8 -262144 -1
-1 5500 1;
#X obj 254 129 moses 50;
#X obj 332 90 moses 50;
#X obj 385 170 packline;
#X obj 407 207 *;
#X obj 458 154 packline;
#X obj 478 200 *;
#X obj 421 277 -;
#X obj 371 577 *~;
#X obj 425 339 sig~;
#X obj 387 268 f;
#X msg 374 241 bang;
#X obj 493 394 sig~;
#X obj 371 615 +~;
#X obj 162 360 f;
#X msg 166 333 bang;
#X obj 417 40 loadbang;
#X msg 415 80 0;
#X msg 462 80 1;
#X obj 823 110 inlet;
#X obj 745 176 select 1 0;
#X obj 108 536 metro;
#X obj 37 49 nbx 3 10 0 999 0 0 empty empty trig 0 -5 0 8 -262144 -1
-1 380.052 256 0;
#X obj 147 742 f;
#X obj 185 615 phasor~;
#X obj 154 661 snapshot~;
#X obj 72 48 nbx 4 10 -100000 100000 0 0 empty empty bpm 0 -5 0 8 -262144
-1 -1 -217.457 256 0;
#X obj 3 49 nbx 3 10 0 999 0 0 empty empty spd 0 -6 0 8 -262144 -1
-1 32.6694 256 0;
#X msg 603 313 0;
#X obj 281 199 inlet;
#X obj 556 121 inlet;
#X obj 210 525 metro 20;
#X msg 668 407 60;
#X obj 713 455 /;
#X obj 822 463 pow 2;
#X msg 797 435 2;
#X obj 837 517 *;
#X msg 813 562 1;
#X obj 848 597 /;
#X obj 784 532 f;
#X msg 788 505 bang;
#X obj 30 178 spigot;
#X msg 603 230 1;
#X obj 672 694 snapshot~;
#X obj 705 657 metro 20;
#X obj 775 763 outlet;
#X obj 631 122 inlet;
#X obj 52 450 / 8;
#X obj 246 725 tabread4~ \$0-sampler;
#X msg 334 37 2;
#X obj 455 642 /~;
#X obj 549 799 lop~;
#X obj 185 775 lop~ 5;
#X obj 113 810 vsl 15 128 0 20000 0 0 empty empty empty 0 -9 0 10 -262144
-1 -1 100 1;
#X obj 356 859 *~;
#X floatatom 445 872 5 0 0 0 - - -, f 5;
#X floatatom 155 -5 5 0 0 0 - speed -, f 5;
#X connect 0 0 25 1;
#X connect 0 0 27 1;
#X connect 0 0 38 0;
#X connect 0 0 39 0;
#X connect 0 0 71 1;
#X connect 1 0 12 0;
#X connect 2 0 69 0;
#X connect 2 0 71 0;
#X connect 4 0 48 0;
#X connect 5 0 6 0;
#X connect 6 0 9 0;
#X connect 6 0 35 1;
#X connect 7 0 9 1;
#X connect 7 0 36 0;
#X connect 8 0 7 0;
#X connect 9 0 11 1;
#X connect 9 0 10 0;
#X connect 10 0 11 0;
#X connect 11 0 1 0;
#X connect 12 0 13 0;
#X connect 13 0 29 0;
#X connect 14 0 1 0;
#X connect 14 0 1 1;
#X connect 14 0 45 1;
#X connect 14 0 45 0;
#X connect 14 0 42 0;
#X connect 14 0 52 0;
#X connect 15 0 7 1;
#X connect 15 0 8 0;
#X connect 15 0 55 1;
#X connect 15 0 56 0;
#X connect 16 0 14 0;
#X connect 17 0 0 0;
#X connect 17 0 43 0;
#X connect 18 0 1 1;
#X connect 19 0 5 0;
#X connect 19 0 53 0;
#X connect 20 0 22 0;
#X connect 20 0 23 1;
#X connect 20 0 26 0;
#X connect 21 0 22 1;
#X connect 21 0 23 0;
#X connect 21 0 24 0;
#X connect 22 1 21 0;
#X connect 23 0 20 0;
#X connect 24 0 25 0;
#X connect 25 0 28 0;
#X connect 25 0 31 1;
#X connect 26 0 27 0;
#X connect 27 0 28 1;
#X connect 27 0 32 0;
#X connect 27 0 33 0;
#X connect 28 0 30 0;
#X connect 29 0 34 0;
#X connect 30 0 29 1;
#X connect 31 0 28 0;
#X connect 32 0 31 0;
#X connect 33 0 34 1;
#X connect 34 0 2 0;
#X connect 35 0 9 0;
#X connect 36 0 35 0;
#X connect 37 0 38 0;
#X connect 37 0 39 0;
#X connect 37 0 70 0;
#X connect 38 0 20 0;
#X connect 39 0 21 0;
#X connect 40 0 41 0;
#X connect 41 0 35 0;
#X connect 41 0 42 0;
#X connect 41 0 52 0;
#X connect 41 0 63 0;
#X connect 41 0 47 0;
#X connect 41 0 43 0;
#X connect 41 0 48 0;
#X connect 41 1 14 0;
#X connect 41 1 49 0;
#X connect 42 0 44 0;
#X connect 43 0 42 1;
#X connect 44 0 18 0;
#X connect 44 0 12 1;
#X connect 45 0 46 0;
#X connect 46 0 44 1;
#X connect 47 0 54 1;
#X connect 47 0 53 0;
#X connect 48 0 62 0;
#X connect 49 0 42 0;
#X connect 49 0 45 0;
#X connect 49 0 45 1;
#X connect 49 0 52 0;
#X connect 49 0 62 1;
#X connect 49 0 65 0;
#X connect 50 0 43 0;
#X connect 51 0 47 0;
#X connect 52 0 46 0;
#X connect 53 0 54 0;
#X connect 54 0 57 0;
#X connect 54 0 60 1;
#X connect 55 0 57 1;
#X connect 55 0 61 0;
#X connect 56 0 55 0;
#X connect 57 0 59 1;
#X connect 57 0 58 0;
#X connect 58 0 59 0;
#X connect 59 0 45 0;
#X connect 60 0 57 0;
#X connect 61 0 60 0;
#X connect 62 0 6 1;
#X connect 62 0 5 0;
#X connect 63 0 62 1;
#X connect 63 0 65 0;
#X connect 64 0 66 0;
#X connect 65 0 64 0;
#X connect 67 0 68 0;
#X connect 68 0 18 0;
#X connect 68 0 44 0;
#X connect 68 0 45 1;
#X connect 69 0 73 0;
#X connect 69 0 72 0;
#X connect 70 0 15 0;
#X connect 71 0 64 0;
#X connect 73 0 75 0;
#X connect 74 0 73 1;
#X connect 75 0 3 0;
#X connect 76 0 75 1;
#X connect 76 0 75 0;
#X connect 77 0 15 0;
#X coords 0 0 1 1 114 61 1 0 0;
