#N canvas 493 19 454 843 10;
#X obj 100 116 cnv 20 172 48 empty empty empty 20 12 0 14 -262144 -66577
0;
#X floatatom 100 115 3 0 0 0 - - -, f 3;
#X floatatom 122 115 3 0 0 0 - - -, f 3;
#X floatatom 144 115 3 0 0 0 - - -, f 3;
#X floatatom 166 115 3 0 0 0 - - -, f 3;
#X floatatom 186 115 3 0 0 0 - - -, f 3;
#X floatatom 208 115 3 0 0 0 - - -, f 3;
#X floatatom 230 115 3 0 0 0 - - -, f 3;
#X floatatom 252 115 3 0 0 0 - - -, f 3;
#X floatatom 100 129 3 0 0 0 - - -, f 3;
#X floatatom 122 129 3 0 0 0 - - -, f 3;
#X floatatom 144 129 3 0 0 0 - - -, f 3;
#X floatatom 166 129 3 0 0 0 - - -, f 3;
#X floatatom 186 129 3 0 0 0 - - -, f 3;
#X floatatom 208 129 3 0 0 0 - - -, f 3;
#X floatatom 230 129 3 0 0 0 - - -, f 3;
#X floatatom 252 129 3 0 0 0 - - -, f 3;
#X obj 103 143 hradio 8 1 0 16 empty empty empty 0 -6 0 8 -262144 -1
-1 0;
#X obj 557 28 * 16;
#X obj 535 54 + 1;
#X obj 537 82 tabread \$0-seq;
#X obj 56 419 spigot;
#X obj 23 460 tabwrite \$0-seq;
#X msg 42 321 0;
#X obj 646 81 tabread \$0-seq;
#X obj 632 46 + 2;
#X obj 760 79 tabread \$0-seq;
#X obj 746 51 + 3;
#X obj 877 81 tabread \$0-seq;
#X obj 876 53 + 4;
#X obj 557 148 tabread \$0-seq;
#X obj 666 147 tabread \$0-seq;
#X obj 780 147 tabread \$0-seq;
#X obj 890 146 tabread \$0-seq;
#X obj 555 120 + 5;
#X obj 652 112 + 6;
#X obj 766 117 + 7;
#X obj 869 116 + 8;
#X obj 559 231 tabread \$0-seq;
#X obj 668 230 tabread \$0-seq;
#X obj 782 228 tabread \$0-seq;
#X obj 899 230 tabread \$0-seq;
#X obj 579 297 tabread \$0-seq;
#X obj 688 296 tabread \$0-seq;
#X obj 802 296 tabread \$0-seq;
#X obj 912 295 tabread \$0-seq;
#X obj 557 203 + 9;
#X obj 654 195 + 10;
#X obj 768 200 + 11;
#X obj 898 202 + 12;
#X obj 577 269 + 13;
#X obj 674 261 + 14;
#X obj 788 266 + 15;
#X obj 891 265 + 16;
#X obj 212 370 f;
#X msg 160 466 bang;
#X obj 250 371 f;
#X msg 198 467 bang;
#X obj 288 371 f;
#X msg 236 467 bang;
#X obj 327 370 f;
#X msg 275 466 bang;
#X obj 374 371 f;
#X msg 322 467 bang;
#X obj 417 370 f;
#X msg 417 302 bang;
#X obj 449 369 f;
#X msg 460 301 bang;
#X obj 512 368 f;
#X msg 523 300 bang;
#X obj 184 470 f;
#X msg 184 402 bang;
#X obj 236 468 f;
#X msg 236 400 bang;
#X obj 291 471 f;
#X msg 291 403 bang;
#X obj 360 467 f;
#X msg 360 399 bang;
#X obj 410 467 f;
#X msg 410 399 bang;
#X obj 473 466 f;
#X msg 473 398 bang;
#X obj 534 465 f;
#X msg 534 397 bang;
#X obj 597 464 f;
#X msg 597 396 bang;
#X floatatom 105 151 3 0 0 0 - - -, f 3;
#X floatatom 128 151 3 0 0 0 - - -, f 3;
#X msg 86 326 1;
#N canvas 561 260 507 544 array 0;
#N canvas 0 0 450 300 (subpatch) 0;
#X array \$0-seq 16 float 3 black black;
#A 0 0 3 6 0 2 0 0 3 2 2 0 1 0 0 0 -2;
#X coords 0 1 16 -1 200 140 1;
#X restore 126 70 graph;
#X restore 830 773 pd array;
#X obj 386 690 symbol \$0-seq;
#X floatatom 158 152 3 0 256 0 - - -, f 3;
#X floatatom 229 151 3 0 0 0 - - -, f 3;
#X obj 636 639 openpanel;
#X msg 278 823 \; \$2 resize \$1;
#X obj 296 801 pack f s;
#X obj 611 714 pack s s;
#X msg 599 763 \; \$2 read \$1;
#X obj 819 628 float;
#X obj 714 603 metro;
#X obj 625 358 inlet;
#X obj 801 404 / 60;
#X msg 757 401 1;
#X obj 776 448 /;
#X msg 809 431 bang;
#X obj 782 564 * 250;
#X obj 798 478 select 0;
#X msg 810 520 0;
#X obj 909 646 + 1;
#X obj 811 692 tabread \$0-seq;
#X floatatom 271 13 3 0 999 0 - - -, f 3;
#X obj 926 605 mod 256;
#X obj 188 153 bng 10 250 50 0 empty empty o -7 4 0 8 -62784 -1 -1
;
#X obj 291 778 f;
#X obj 209 153 bng 10 250 50 0 empty empty s -7 4 0 8 -24198 -1 -1
;
#X obj 97 635 savepanel;
#X obj 111 724 pack s s;
#X msg 109 772 \; \$2 write \$1;
#X obj 786 825 outlet;
#X msg 1041 387 120;
#X obj 446 783 pack f s;
#X msg 420 812 \; \$2 const \$1;
#X msg 511 706 bang;
#X obj 469 739 0;
#X msg 986 427 16;
#X obj 236 143 hradio 8 1 0 4 empty empty empty 0 -6 0 8 -262144 -1
-1 0;
#X obj 948 333 inlet;
#X obj 708 363 inlet;
#X obj 1027 463 \$0;
#X obj 1028 536 outlet;
#X obj 1080 349 inlet;
#X obj 1031 319 loadbang;
#X msg 46 196 0;
#X msg 557 737 bang;
#X floatatom 144 53 5 0 0 0 - numBeats -, f 5;
#X connect 1 0 55 0;
#X connect 1 0 21 0;
#X connect 2 0 57 0;
#X connect 2 0 21 0;
#X connect 3 0 59 0;
#X connect 3 0 21 0;
#X connect 4 0 61 0;
#X connect 4 0 21 0;
#X connect 5 0 63 0;
#X connect 5 0 21 0;
#X connect 6 0 65 0;
#X connect 6 0 21 0;
#X connect 7 0 67 0;
#X connect 7 0 21 0;
#X connect 8 0 69 0;
#X connect 8 0 21 0;
#X connect 9 0 71 0;
#X connect 9 0 21 0;
#X connect 10 0 73 0;
#X connect 10 0 21 0;
#X connect 11 0 75 0;
#X connect 11 0 21 0;
#X connect 12 0 77 0;
#X connect 12 0 21 0;
#X connect 13 0 79 0;
#X connect 13 0 21 0;
#X connect 14 0 81 0;
#X connect 14 0 21 0;
#X connect 15 0 21 0;
#X connect 15 0 83 0;
#X connect 16 0 85 0;
#X connect 16 0 21 0;
#X connect 17 0 23 0;
#X connect 17 0 18 0;
#X connect 17 0 88 0;
#X connect 18 0 19 0;
#X connect 18 0 25 0;
#X connect 18 0 27 0;
#X connect 18 0 29 0;
#X connect 18 0 34 0;
#X connect 18 0 35 0;
#X connect 18 0 36 0;
#X connect 18 0 37 0;
#X connect 18 0 46 0;
#X connect 18 0 47 0;
#X connect 18 0 48 0;
#X connect 18 0 49 0;
#X connect 18 0 50 0;
#X connect 18 0 51 0;
#X connect 18 0 52 0;
#X connect 18 0 53 0;
#X connect 19 0 20 0;
#X connect 19 0 54 1;
#X connect 19 0 86 0;
#X connect 20 0 1 0;
#X connect 21 0 22 0;
#X connect 23 0 21 1;
#X connect 24 0 2 0;
#X connect 25 0 24 0;
#X connect 25 0 56 1;
#X connect 26 0 3 0;
#X connect 27 0 26 0;
#X connect 27 0 58 1;
#X connect 28 0 4 0;
#X connect 29 0 28 0;
#X connect 29 0 60 1;
#X connect 30 0 5 0;
#X connect 31 0 6 0;
#X connect 32 0 7 0;
#X connect 33 0 8 0;
#X connect 34 0 30 0;
#X connect 34 0 62 1;
#X connect 35 0 31 0;
#X connect 35 0 64 1;
#X connect 36 0 32 0;
#X connect 36 0 66 1;
#X connect 37 0 33 0;
#X connect 37 0 68 1;
#X connect 38 0 9 0;
#X connect 39 0 10 0;
#X connect 40 0 11 0;
#X connect 41 0 12 0;
#X connect 42 0 13 0;
#X connect 43 0 14 0;
#X connect 44 0 15 0;
#X connect 45 0 16 0;
#X connect 46 0 38 0;
#X connect 46 0 70 1;
#X connect 47 0 39 0;
#X connect 47 0 72 1;
#X connect 48 0 40 0;
#X connect 48 0 74 1;
#X connect 49 0 41 0;
#X connect 49 0 76 1;
#X connect 50 0 42 0;
#X connect 50 0 78 1;
#X connect 51 0 43 0;
#X connect 51 0 80 1;
#X connect 52 0 44 0;
#X connect 52 0 82 1;
#X connect 53 0 45 0;
#X connect 53 0 84 1;
#X connect 53 0 87 0;
#X connect 54 0 22 1;
#X connect 55 0 54 0;
#X connect 56 0 22 1;
#X connect 57 0 56 0;
#X connect 58 0 22 1;
#X connect 59 0 58 0;
#X connect 60 0 22 1;
#X connect 61 0 60 0;
#X connect 62 0 22 1;
#X connect 63 0 62 0;
#X connect 64 0 22 1;
#X connect 65 0 64 0;
#X connect 66 0 22 1;
#X connect 67 0 66 0;
#X connect 68 0 22 1;
#X connect 69 0 68 0;
#X connect 70 0 22 1;
#X connect 71 0 70 0;
#X connect 72 0 22 1;
#X connect 73 0 72 0;
#X connect 74 0 22 1;
#X connect 75 0 74 0;
#X connect 76 0 22 1;
#X connect 77 0 76 0;
#X connect 78 0 22 1;
#X connect 79 0 78 0;
#X connect 80 0 22 1;
#X connect 81 0 80 0;
#X connect 82 0 22 1;
#X connect 83 0 82 0;
#X connect 84 0 22 1;
#X connect 85 0 84 0;
#X connect 88 0 21 1;
#X connect 90 0 95 1;
#X connect 90 0 96 1;
#X connect 90 0 116 1;
#X connect 90 0 120 1;
#X connect 91 0 111 1;
#X connect 91 0 113 1;
#X connect 93 0 122 0;
#X connect 93 0 96 0;
#X connect 95 0 94 0;
#X connect 96 0 97 0;
#X connect 96 0 133 0;
#X connect 98 0 109 0;
#X connect 98 0 92 0;
#X connect 98 0 111 0;
#X connect 99 0 98 0;
#X connect 100 0 110 0;
#X connect 101 0 103 1;
#X connect 101 0 104 0;
#X connect 102 0 103 0;
#X connect 103 0 105 0;
#X connect 104 0 102 0;
#X connect 105 0 99 1;
#X connect 106 0 107 0;
#X connect 107 0 98 0;
#X connect 108 0 98 1;
#X connect 109 0 118 0;
#X connect 110 0 101 0;
#X connect 111 0 108 0;
#X connect 112 0 93 0;
#X connect 113 0 95 0;
#X connect 114 0 113 0;
#X connect 114 0 115 0;
#X connect 115 0 116 0;
#X connect 116 0 117 0;
#X connect 119 0 110 0;
#X connect 120 0 121 0;
#X connect 122 0 123 0;
#X connect 123 0 120 0;
#X connect 124 0 91 0;
#X connect 126 0 91 0;
#X connect 127 0 91 0;
#X connect 128 0 129 0;
#X connect 130 0 99 0;
#X connect 130 0 106 0;
#X connect 131 0 17 0;
#X connect 131 0 124 0;
#X connect 131 0 90 0;
#X connect 131 0 119 0;
#X connect 131 0 128 0;
#X connect 132 0 17 0;
#X connect 133 0 132 0;
#X connect 134 0 91 0;
#X coords 0 -1 1 1 172 65 1 100 100;
