#N canvas 373 19 334 843 10;
#X obj 78 184 pix_film;
#X obj 76 69 bng 15 250 50 0 empty empty empty 0 -6 0 8 -262144 -1
-1;
#X obj 99 106 openpanel;
#X msg 58 129 open \$1;
#X obj 149 206 unpack 0 0 0;
#X obj 241 126 *;
#X obj 188 99 inlet;
#X obj 90 316 pix_texture;
#X obj -7 125 gemhead;
#N canvas 1093 19 328 843 Gem.init 0;
#X obj 83 30 loadbang;
#X msg 161 76 reset;
#X obj 45 107 outlet;
#X obj 88 51 t b b;
#X msg 45 75 dimen 600 600;
#X connect 0 0 3 0;
#X connect 1 0 2 0;
#X connect 3 0 4 0;
#X connect 3 1 1 0;
#X connect 4 0 2 0;
#X restore 357 224 pd Gem.init;
#X msg 334 144 create \, 1;
#X msg 307 108 0 \, destroy;
#X obj 295 72 select 1 0;
#X obj 101 70 tgl 15 0 empty empty empty 0 -6 0 8 -262144 -1 -1 1 1
;
#X obj 290 256 gemwin 25;
#X obj 84 361 square 4;
#X msg 231 259 mode 0;
#X obj 247 174 inlet;
#X obj 114 266 pix_mix;
#X obj 287 440 pix_film;
#X obj 253 299 bng 25 250 50 0 empty empty empty 0 -6 0 8 -262144 -1
-1;
#X obj 244 340 openpanel;
#X msg 267 385 open \$1;
#X obj 345 373 gemhead;
#X obj 383 265 tgl 32 0 empty empty empty 0 -6 0 8 -262144 -1 -1 1
1;
#X obj 118 234 hsl 30 15 0 1 0 0 empty empty empty -2 -8 0 10 -262144
-1 -1 2900 1;
#X msg 342 310 auto \$1;
#X connect 0 0 18 0;
#X connect 0 1 4 0;
#X connect 1 0 2 0;
#X connect 2 0 3 0;
#X connect 3 0 0 0;
#X connect 4 0 5 1;
#X connect 5 0 0 1;
#X connect 6 0 5 0;
#X connect 7 0 15 0;
#X connect 8 0 0 0;
#X connect 9 0 14 0;
#X connect 10 0 14 0;
#X connect 11 0 14 0;
#X connect 12 0 10 0;
#X connect 12 1 11 0;
#X connect 13 0 12 0;
#X connect 16 0 7 0;
#X connect 17 0 16 0;
#X connect 18 0 7 0;
#X connect 19 0 18 1;
#X connect 20 0 21 0;
#X connect 21 0 22 0;
#X connect 22 0 19 0;
#X connect 23 0 19 0;
#X connect 24 0 26 0;
#X connect 25 0 18 2;
#X connect 26 0 19 0;
#X coords 0 -1 1 1 45 35 1 77 62;
